<?xml version="1.0" encoding="iso-8859-1"?>
<!-- Generator: Adobe Illustrator 19.0.0, SVG Export Plug-In . SVG Version: 6.00 Build 0)  -->
<svg version="1.1" id="Capa_1" xmlns="http://www.w3.org/2000/svg" xmlns:xlink="http://www.w3.org/1999/xlink" x="0px" y="0px"
	 viewBox="0 0 417.959 417.959" style="enable-background:new 0 0 417.959 417.959;" xml:space="preserve">
<g>
	<g>
		<g>
			<polygon points="360.49,111.282 360.49,187.037 412.212,147.331 			"/>
			<polygon points="57.469,111.282 5.747,147.331 57.469,187.037 			"/>
			<path d="M344.816,199.053V31.347H73.143v167.706l135.837,104.49L344.816,199.053z M125.388,83.592h47.02
				c4.328,0,7.837,3.509,7.837,7.837s-3.509,7.837-7.837,7.837h-47.02c-4.328,0-7.837-3.509-7.837-7.837
				S121.06,83.592,125.388,83.592z M125.388,130.612h167.184c4.328,0,7.837,3.509,7.837,7.837c0,4.328-3.509,7.837-7.837,7.837
				H125.388c-4.328,0-7.837-3.509-7.837-7.837C117.551,134.121,121.06,130.612,125.388,130.612z M117.551,185.469
				c0-4.328,3.509-7.837,7.837-7.837h167.184c4.328,0,7.837,3.509,7.837,7.837c0,4.328-3.509,7.837-7.837,7.837H125.388
				C121.06,193.306,117.551,189.797,117.551,185.469z"/>
			<polygon points="0,161.959 0,381.388 151.51,278.988 			"/>
			<polygon points="266.449,278.988 417.959,381.388 417.959,161.959 			"/>
			<path d="M213.682,319.216c-2.786,2.09-6.618,2.09-9.404,0l-39.184-29.78L19.853,386.612h378.253l-144.718-97.698L213.682,319.216
				z"/>
		</g>
	</g>
</g>
<g>
</g>
<g>
</g>
<g>
</g>
<g>
</g>
<g>
</g>
<g>
</g>
<g>
</g>
<g>
</g>
<g>
</g>
<g>
</g>
<g>
</g>
<g>
</g>
<g>
</g>
<g>
</g>
<g>
</g>
</svg>
