<svg height="424pt" viewBox="0 -31 424.13794 424" width="424pt" xmlns="http://www.w3.org/2000/svg"><path d="m125.28125 263.578125 111.277344 61.824219v-262.386719l-111.277344-61.820313zm0 0"/><path d="m301.835938 277.589844c1.113281-16.90625 8.308593-32.839844 20.257812-44.851563 10.652344-10.75 24.695312-17.484375 39.746094-19.058593v-199.691407l-111.28125 49.457031v263.082032l54.421875-24.1875c-2.617188-7.972656-3.683594-16.375-3.144531-24.75zm0 0"/><path d="m0 312.605469 111.28125-49.457031v-263.0781255l-111.28125 49.4570315zm0 0"/><path d="m392.921875 277.253906c0-13.699218-10.746094-24.804687-24-24.804687-13.257813 0-24 11.105469-24 24.804687 0 13.699219 10.742187 24.808594 24 24.808594 13.253906 0 24-11.109375 24-24.808594zm0 0"/><path d="m424.027344 278.390625c-.917969-14.015625-6.878906-27.222656-16.78125-37.183594-10.152344-10.183593-23.945313-15.910156-38.328125-15.910156-14.378907 0-28.171875 5.726563-38.324219 15.910156-9.902344 9.960938-15.863281 23.167969-16.785156 37.183594-.480469 7.605469.644531 15.230469 3.300781 22.375 2.835937 7.507813 7.167969 14.359375 12.734375 20.140625l39.078125 41.625 39.078125-41.625c5.566406-5.78125 9.898438-12.632812 12.734375-20.140625 2.652344-7.144531 3.777344-14.769531 3.292969-22.375zm-55.105469 35.671875c-19.851563 0-36-16.511719-36-36.808594 0-20.292968 16.148437-36.804687 36-36.804687 19.847656 0 36 16.511719 36 36.804687 0 20.296875-16.148437 36.808594-36 36.808594zm0 0"/></svg>